<svg width="1024" height="1024" viewBox="0 0 1024 1024" fill="none" xmlns="http://www.w3.org/2000/svg">
<rect width="1024" height="1024" fill="#0A0A0A"/>
<g opacity="0.4">
<mask id="mask0_2_90" style="mask-type:luminance" maskUnits="userSpaceOnUse" x="0" y="0" width="1024" height="1024">
<rect width="1024" height="1024" fill="white"/>
</mask>
<g mask="url(#mask0_2_90)">
<path opacity="0.5" fill-rule="evenodd" clip-rule="evenodd" d="M706.163 908.556C749.419 887.291 788.706 859.182 822.6 825.612L950.618 953.629H706.163V908.556ZM514.163 953.629V953.578C581.303 953.254 644.954 937.894 701.896 910.655V953.629H514.163ZM322.163 953.629V910.655C379.106 937.894 442.756 953.254 509.897 953.578V953.629H322.163ZM73.4506 953.629L201.459 825.612C235.354 859.182 274.65 887.291 317.896 908.556V953.629H73.4506ZM115.503 706.162C136.768 749.418 164.877 788.705 198.447 822.6L70.4298 950.617V706.162H115.503ZM70.4298 514.162H70.481C70.8053 581.311 86.1653 644.953 113.404 701.896H70.4298V514.162ZM70.4298 322.162H113.404C86.1653 379.105 70.8053 442.756 70.481 509.896H70.4298V322.162ZM70.4298 73.4499L198.447 201.458C164.877 235.353 136.768 274.649 115.503 317.896H70.4298V73.4499ZM317.896 115.502C274.65 136.767 235.354 164.876 201.459 198.446L73.4506 70.4291H317.896V115.502ZM509.897 70.4291V70.4803C442.756 70.8046 379.106 86.1731 322.163 113.403V70.4291H509.897ZM701.896 70.4291V113.403C644.954 86.1731 581.303 70.8046 514.163 70.4803V70.4291H701.896ZM950.618 70.4291L822.6 198.446C788.706 164.876 749.419 136.767 706.163 115.502V70.4291H950.618ZM908.557 317.896C887.3 274.649 859.191 235.353 825.621 201.458L953.63 73.4499V317.896H908.557ZM953.63 509.896H953.579C953.263 442.756 937.894 379.105 910.664 322.162H953.63V509.896ZM953.63 701.896H910.664C937.894 644.953 953.263 581.311 953.579 514.162H953.63V701.896ZM709.184 706.162H903.761C882.829 748.249 855.351 786.512 822.6 819.579L709.184 706.162ZM706.163 709.175L819.588 822.6C786.513 855.351 748.25 882.819 706.163 903.76V709.175ZM514.163 787.178C586.893 786.615 652.949 757.695 701.896 710.958V905.953C645.047 933.465 581.372 948.987 514.163 949.311V787.178ZM322.163 710.958C371.11 757.695 437.167 786.615 509.897 787.178V949.311C442.688 948.987 379.012 933.465 322.163 905.953V710.958ZM317.896 709.183V903.76C275.819 882.82 237.547 855.351 204.48 822.6L317.896 709.183ZM314.884 706.162L201.459 819.579C168.708 786.512 141.239 748.249 120.299 706.162H314.884ZM236.881 514.162C237.444 586.892 266.364 652.949 313.101 701.896H118.106C90.5941 645.047 75.072 581.371 74.7477 514.162H236.881ZM313.101 322.162C266.364 371.11 237.444 437.166 236.881 509.896H74.7477C75.072 442.687 90.5941 379.012 118.114 322.162H313.101ZM314.884 317.896H120.299C141.239 275.818 168.708 237.546 201.459 204.479L314.884 317.896ZM317.896 314.875L204.48 201.458C237.547 168.708 275.819 141.239 317.896 120.298V314.875ZM509.897 236.88C437.167 237.444 371.11 266.363 322.163 313.1V118.113C379.012 90.5934 442.688 75.0712 509.897 74.747V236.88ZM701.896 313.1C652.949 266.363 586.893 237.444 514.163 236.88V74.747C581.372 75.0712 645.047 90.5934 701.896 118.113V313.1ZM706.163 314.884V120.298C748.25 141.239 786.513 168.708 819.588 201.458L706.163 314.884ZM709.184 317.896L822.6 204.479C855.351 237.546 882.82 275.818 903.761 317.896H709.184ZM787.179 509.896C786.624 437.166 757.696 371.11 710.959 322.162H905.954C933.466 379.012 948.988 442.687 949.312 509.896H787.179ZM787.179 514.162H949.312C948.988 581.371 933.466 645.047 905.954 701.896H710.959C757.696 652.949 786.624 586.892 787.179 514.162ZM514.163 706.162H700.745C652.395 753.181 586.637 782.348 514.163 782.911V706.162ZM509.896 706.162V782.911C437.423 782.348 371.665 753.181 323.315 706.162H509.896ZM317.897 514.162V700.744C270.886 652.394 241.719 586.636 241.148 514.162H317.897ZM317.897 509.896H241.148C241.719 437.422 270.886 371.664 317.897 323.314V509.896ZM509.896 317.896H323.315C371.665 270.886 437.423 241.719 509.896 241.147V317.896ZM514.163 317.896V241.147C586.637 241.719 652.395 270.886 700.745 317.896H514.163ZM706.163 509.896V323.314C753.182 371.664 782.349 437.422 782.912 509.896H706.163ZM706.163 514.162H782.912C782.349 586.636 753.182 652.394 706.163 700.752V514.162ZM514.163 517.175L698.884 701.896H514.163V517.175ZM509.896 517.183V701.896H325.184L509.896 517.183ZM506.884 514.162L322.163 698.884V514.162H506.884ZM506.884 509.896H322.163V325.175L506.884 509.896ZM509.896 506.875L325.184 322.162H509.896V506.875ZM514.163 506.884V322.162H698.884L514.163 506.884ZM701.896 514.162V698.875L517.184 514.162H701.896ZM517.184 509.896L701.896 325.183V509.896H517.184ZM953.63 950.617L825.621 822.6C859.191 788.705 887.3 749.418 908.557 706.162H953.63V950.617ZM1038.57 1035.55L963.908 960.879H1029.15V956.612H960.887V709.146H1029.15V704.879H960.887V517.146H1029.15V512.879H960.887V325.146H1029.15V320.879H960.887V73.4123H1029.15V69.1456H963.908L1030.04 3.01227L1027.02 0L960.887 66.1333V0.878933H956.621V69.1456H709.154V0.878933H704.887V69.1456H517.154V0.878933H512.887V69.1456H325.154V0.878933H320.887V69.1456H73.4208V0.878933H69.1541V66.1333L3.0208 0L0 3.01227L66.1419 69.1456H0.887467V73.4123H69.1541V320.879H0.887467V325.146H69.1541V512.879H0.887467V517.146H69.1541V704.879H0.887467V709.146H69.1541V956.612H0.887467V960.879H66.1419L0 1027.01L3.0208 1030.03L69.1541 963.9V1029.15H73.4208V960.879H320.887V1029.15H325.154V960.879H512.887V1029.15H517.154V960.879H704.887V1029.15H709.154V960.879H956.621V1029.15H960.887V963.9L1035.55 1038.57L1038.57 1035.55Z" fill="white"/>
</g>
</g>
<path d="M398.715 291.269V318.955H625.285V291.269C625.285 278.556 616.527 270.364 602.402 270.364H421.316C407.473 270.364 398.715 278.556 398.715 291.269ZM511.718 489.87C400.693 489.87 294.753 472.92 191.921 429.979V409.356C191.921 349.748 222.997 318.955 283.171 318.955H339.954V288.726C339.954 243.526 369.052 216.688 417.643 216.688H606.075C654.666 216.688 683.764 243.526 683.764 288.726V318.955H740.547C801.003 318.955 831.797 349.748 831.797 409.356V429.979C728.964 472.92 623.025 489.87 511.718 489.87ZM283.171 775.484C222.997 775.484 191.921 744.973 191.921 685.082V483.655C277.803 515.013 355.21 529.704 433.464 535.636V557.954C433.464 579.425 445.894 591.29 467.647 591.29H555.789C577.824 591.29 590.254 579.425 590.254 557.954V535.636C668.508 529.704 745.915 515.013 831.797 483.655V685.082C831.797 744.973 801.003 775.484 740.547 775.484H283.171Z" fill="white"/>
</svg>
